<svg version="1.1" xmlns="http://www.w3.org/2000/svg" viewBox="0 0 1092.152442472298 2363.762160377717" width="1092.152442472298" height="2363.762160377717">
  <!-- svg-source:excalidraw -->
  
  <defs>
    <style class="style-fonts">
      @font-face {
        font-family: "Virgil";
        src: url("https://excalidraw.com/Virgil.woff2");
      }
      @font-face {
        font-family: "Cascadia";
        src: url("https://excalidraw.com/Cascadia.woff2");
      }
    </style>
  </defs>
  <g stroke-linecap="round" transform="translate(331.19488701730734 273.3610230194888) rotate(0 115.36328125 60.8671875)"><path d="M30.43 0 M30.43 0 C81.79 -0.3, 132.63 2.37, 200.29 0 M30.43 0 C72.56 -2.19, 114.05 -0.52, 200.29 0 M200.29 0 C219.14 1.8, 231.71 11.94, 230.73 30.43 M200.29 0 C221.37 0.75, 230.38 10.41, 230.73 30.43 M230.73 30.43 C231.61 53.1, 230.25 73.97, 230.73 91.3 M230.73 30.43 C231.52 46.54, 230.6 64.31, 230.73 91.3 M230.73 91.3 C231.49 111.34, 221.92 121.9, 200.29 121.73 M230.73 91.3 C228.7 113.01, 219.82 119.64, 200.29 121.73 M200.29 121.73 C161.73 121.19, 127.83 120.53, 30.43 121.73 M200.29 121.73 C134.09 122.78, 67.06 122.47, 30.43 121.73 M30.43 121.73 C10.9 120.97, 1.61 112.75, 0 91.3 M30.43 121.73 C8.46 120.86, -1.22 110.88, 0 91.3 M0 91.3 C-0.37 77.46, 2.05 60.09, 0 30.43 M0 91.3 C0.9 68.1, -0.3 45.78, 0 30.43 M0 30.43 C-1.17 9.03, 10.73 0.41, 30.43 0 M0 30.43 C-0.66 9.83, 12.41 0.88, 30.43 0" stroke="#000000" stroke-width="2" fill="none"></path></g><g stroke-linecap="round" transform="translate(608.3991038592992 892.8167314362779) rotate(0 115.36328125 60.8671875)"><path d="M30.43 0 M30.43 0 C96.64 0.41, 160.85 -1.9, 200.29 0 M30.43 0 C95.25 -0.36, 159.86 -0.68, 200.29 0 M200.29 0 C221.61 -0.92, 232.14 11.54, 230.73 30.43 M200.29 0 C219.24 -0.53, 230.96 11.74, 230.73 30.43 M230.73 30.43 C230.97 47.39, 229.22 62.96, 230.73 91.3 M230.73 30.43 C230.57 47.32, 230.56 64.3, 230.73 91.3 M230.73 91.3 C231.4 112.58, 221.54 121.15, 200.29 121.73 M230.73 91.3 C230.83 113.78, 222.43 121.73, 200.29 121.73 M200.29 121.73 C151.09 121.62, 103.98 122.67, 30.43 121.73 M200.29 121.73 C145.23 121.36, 91.31 120.75, 30.43 121.73 M30.43 121.73 C11.85 120.66, 1.99 109.99, 0 91.3 M30.43 121.73 C10.6 122.69, -1.83 112.83, 0 91.3 M0 91.3 C-0.75 80.43, 1.47 66.76, 0 30.43 M0 91.3 C0.8 78.86, 0.57 65.31, 0 30.43 M0 30.43 C-1.9 10.86, 10.88 0, 30.43 0 M0 30.43 C-1.55 8.2, 8.53 -0.54, 30.43 0" stroke="#000000" stroke-width="2" fill="none"></path></g><g stroke-linecap="round" transform="translate(734.3383769200841 1522.0399636704788) rotate(0 115.36328125 60.8671875)"><path d="M30.43 0 M30.43 0 C72.93 -2.17, 115.11 -0.81, 200.29 0 M30.43 0 C66.72 0.87, 102.17 0.73, 200.29 0 M200.29 0 C220.04 -0.2, 229.56 11.8, 230.73 30.43 M200.29 0 C220.65 0.76, 229.47 12.2, 230.73 30.43 M230.73 30.43 C230.84 54.04, 230.45 75.03, 230.73 91.3 M230.73 30.43 C231.34 45.97, 232.04 61.04, 230.73 91.3 M230.73 91.3 C228.89 109.92, 219.48 121.24, 200.29 121.73 M230.73 91.3 C229.56 110.46, 220.64 120.93, 200.29 121.73 M200.29 121.73 C151.23 121.9, 101.73 122.85, 30.43 121.73 M200.29 121.73 C145.69 122.75, 92.17 122.19, 30.43 121.73 M30.43 121.73 C8.5 120.94, 0.7 112.31, 0 91.3 M30.43 121.73 C10.65 119.83, 0.39 113.46, 0 91.3 M0 91.3 C1.61 73.75, -0.95 58.41, 0 30.43 M0 91.3 C0.64 73.78, 0.59 54.19, 0 30.43 M0 30.43 C-1.85 9.69, 10.43 -0.47, 30.43 0 M0 30.43 C0.95 8.42, 11.26 1.01, 30.43 0" stroke="#000000" stroke-width="2" fill="none"></path></g><g stroke-linecap="round" transform="translate(675.7311660237215 275.9295070258247) rotate(0 115.36328125 60.8671875)"><path d="M30.43 0 M30.43 0 C80.03 -1.15, 126.63 -0.37, 200.29 0 M30.43 0 C97.93 1.28, 164.63 0.33, 200.29 0 M200.29 0 C220.89 -0.96, 229.13 9.08, 230.73 30.43 M200.29 0 C220.19 0.19, 230.46 12.36, 230.73 30.43 M230.73 30.43 C231.91 53.57, 231.99 75.73, 230.73 91.3 M230.73 30.43 C230.52 52.36, 230.38 72, 230.73 91.3 M230.73 91.3 C229.29 112.85, 222.25 121.93, 200.29 121.73 M230.73 91.3 C232.39 109.44, 220.89 121.53, 200.29 121.73 M200.29 121.73 C158.07 122.86, 118 122.86, 30.43 121.73 M200.29 121.73 C149.06 122.26, 100.4 123.17, 30.43 121.73 M30.43 121.73 C10.34 123.43, 0.35 111.25, 0 91.3 M30.43 121.73 C8.23 121.78, -1.31 112.15, 0 91.3 M0 91.3 C-2.03 69.02, 0.72 43.14, 0 30.43 M0 91.3 C0.51 72.51, 0.63 55.19, 0 30.43 M0 30.43 C-1.95 10.2, 10.24 0.68, 30.43 0 M0 30.43 C-0.78 9.41, 10.7 -0.06, 30.43 0" stroke="#000000" stroke-width="2" fill="none"></path></g><g stroke-linecap="round" transform="translate(255.84557712357037 890.2775828458085) rotate(0 115.36328125 60.8671875)"><path d="M30.43 0 M30.43 0 C79.82 0.11, 130.6 -1.44, 200.29 0 M30.43 0 C84.81 0.69, 138.86 0.26, 200.29 0 M200.29 0 C218.68 1.2, 232.19 10.78, 230.73 30.43 M200.29 0 C220.19 2.17, 229.11 11.25, 230.73 30.43 M230.73 30.43 C230.79 50.98, 232.92 76.37, 230.73 91.3 M230.73 30.43 C230.49 50.14, 230.92 68.4, 230.73 91.3 M230.73 91.3 C232.42 110.16, 221.46 122.69, 200.29 121.73 M230.73 91.3 C228.97 113.61, 221.77 122.35, 200.29 121.73 M200.29 121.73 C155.45 123.04, 106.6 120.39, 30.43 121.73 M200.29 121.73 C136.94 122.26, 72.27 120.87, 30.43 121.73 M30.43 121.73 C9.15 122.44, -1.27 111.93, 0 91.3 M30.43 121.73 C7.95 120.29, -0.01 109.73, 0 91.3 M0 91.3 C-0.14 70.1, 2.16 51.43, 0 30.43 M0 91.3 C0.24 72.45, -0.35 50.65, 0 30.43 M0 30.43 C0.46 8.9, 10.41 -0.42, 30.43 0 M0 30.43 C1.29 12.17, 10.1 -0.07, 30.43 0" stroke="#1864ab" stroke-width="2" fill="none"></path></g><g stroke-linecap="round" transform="translate(245.48882398110447 1505.1136033104112) rotate(0 115.36328125 60.8671875)"><path d="M30.43 0 M30.43 0 C94.6 -1.7, 159.98 -0.56, 200.29 0 M30.43 0 C90.89 1.81, 151.63 1.92, 200.29 0 M200.29 0 C220.47 -0.49, 230.07 8.71, 230.73 30.43 M200.29 0 C219.78 -1.98, 230.71 12.09, 230.73 30.43 M230.73 30.43 C229.14 44.21, 230.38 59.47, 230.73 91.3 M230.73 30.43 C231.06 50.8, 231.15 73.56, 230.73 91.3 M230.73 91.3 C230.25 110.69, 219.67 121.84, 200.29 121.73 M230.73 91.3 C228.61 112.72, 220.31 123.16, 200.29 121.73 M200.29 121.73 C165.71 121.9, 131.97 119.64, 30.43 121.73 M200.29 121.73 C137.71 120.65, 77.49 120.56, 30.43 121.73 M30.43 121.73 C11 122.36, -0.05 111.53, 0 91.3 M30.43 121.73 C11.38 121.63, 1.56 109.53, 0 91.3 M0 91.3 C-0.86 69.53, 0.12 49.14, 0 30.43 M0 91.3 C0.86 73.5, 1.26 54.92, 0 30.43 M0 30.43 C1.71 11.12, 8.83 -0.93, 30.43 0 M0 30.43 C-2.12 10.99, 10.95 1.73, 30.43 0" stroke="#1864ab" stroke-width="2" fill="none"></path></g><g stroke-linecap="round" transform="translate(425.08834952618054 2232.3915969202553) rotate(0 124.12558975756315 60.68528172873107)"><path d="M30.34 0 M30.34 0 C72.19 0.15, 111.05 -0.88, 217.91 0 M30.34 0 C82.53 0.23, 134.34 -0.37, 217.91 0 M217.91 0 C238.17 0.42, 249.74 9.64, 248.25 30.34 M217.91 0 C237.43 2.22, 249.22 8.85, 248.25 30.34 M248.25 30.34 C246.59 50.99, 250 75.62, 248.25 91.03 M248.25 30.34 C247.01 54.49, 247.07 78.4, 248.25 91.03 M248.25 91.03 C249.5 111.16, 238.13 120.8, 217.91 121.37 M248.25 91.03 C246.21 109.49, 238.49 122.85, 217.91 121.37 M217.91 121.37 C172.29 123.45, 124.86 124.54, 30.34 121.37 M217.91 121.37 C145.79 119.14, 71.08 119.23, 30.34 121.37 M30.34 121.37 C12.06 120.82, -2 110.77, 0 91.03 M30.34 121.37 C11.17 122.57, 1.86 112.44, 0 91.03 M0 91.03 C2.16 68.8, 0.02 44.18, 0 30.34 M0 91.03 C0.17 77.42, -0.13 64.57, 0 30.34 M0 30.34 C1.26 11.57, 10.61 -1.67, 30.34 0 M0 30.34 C-1.45 8.91, 11.03 -1.49, 30.34 0" stroke="#1864ab" stroke-width="2" fill="none"></path></g><g stroke-linecap="round" transform="translate(10 270.1908028051846) rotate(0 115.36328125 60.8671875)"><path d="M30.43 0 M30.43 0 C70.11 0.9, 112.69 -0.28, 200.29 0 M30.43 0 C67.39 0.98, 105.27 1.24, 200.29 0 M200.29 0 C219.96 0.55, 230.76 9.55, 230.73 30.43 M200.29 0 C220.3 1.7, 230.03 11.44, 230.73 30.43 M230.73 30.43 C232 44.03, 232.62 61.57, 230.73 91.3 M230.73 30.43 C231.53 43.66, 229.97 56.58, 230.73 91.3 M230.73 91.3 C229.45 113.52, 219.77 121.07, 200.29 121.73 M230.73 91.3 C229.81 110.14, 220.11 121.47, 200.29 121.73 M200.29 121.73 C139.04 120.11, 75.67 120.1, 30.43 121.73 M200.29 121.73 C150.47 120.85, 101.58 122.35, 30.43 121.73 M30.43 121.73 C9.79 120.62, -1.29 111.69, 0 91.3 M30.43 121.73 C12.3 119.95, -0.45 111.72, 0 91.3 M0 91.3 C1.28 67.13, -1.23 45.8, 0 30.43 M0 91.3 C-0.11 71.71, 0.62 50.32, 0 30.43 M0 30.43 C-0.83 10.42, 9.36 0.43, 30.43 0 M0 30.43 C0.65 12.01, 9 -0.11, 30.43 0" stroke="#000000" stroke-width="2" fill="none"></path></g><g transform="translate(355.74176201730734 125.09539801948881) rotate(0 31 12.5)"><text x="0" y="18" font-family="Virgil, Segoe UI Emoji" font-size="20px" fill="#000000" text-anchor="start" style="white-space: pre;" direction="ltr">User 1</text></g><g transform="translate(633.3132564321165 745.3449271811089) rotate(0 35 12.5)"><text x="0" y="18" font-family="Virgil, Segoe UI Emoji" font-size="20px" fill="#000000" text-anchor="start" style="white-space: pre;" direction="ltr">User 3</text></g><g transform="translate(758.8852519200836 1373.7743386704788) rotate(0 31 12.5)"><text x="0" y="18" font-family="Virgil, Segoe UI Emoji" font-size="20px" fill="#000000" text-anchor="start" style="white-space: pre;" direction="ltr">User 1</text></g><g transform="translate(710.2501151341075 131.33982667655357) rotate(0 35.5 12.5)"><text x="0" y="18" font-family="Virgil, Segoe UI Emoji" font-size="20px" fill="#000000" text-anchor="start" style="white-space: pre;" direction="ltr">User 2</text></g><g transform="translate(486.38629326730734 128.4782105194888) rotate(0 31 12.5)"><text x="0" y="18" font-family="Virgil, Segoe UI Emoji" font-size="20px" fill="#000000" text-anchor="start" style="white-space: pre;" direction="ltr">User 1</text></g><g transform="translate(763.9577876821168 748.4822547862441) rotate(0 35 12.5)"><text x="0" y="18" font-family="Virgil, Segoe UI Emoji" font-size="20px" fill="#000000" text-anchor="start" style="white-space: pre;" direction="ltr">User 3</text></g><g transform="translate(889.5297831700841 1377.1571511704788) rotate(0 31 12.5)"><text x="0" y="18" font-family="Virgil, Segoe UI Emoji" font-size="20px" fill="#000000" text-anchor="start" style="white-space: pre;" direction="ltr">User 1</text></g><g transform="translate(841.8126151341075 134.49607667655357) rotate(0 35.5 12.5)"><text x="0" y="18" font-family="Virgil, Segoe UI Emoji" font-size="20px" fill="#000000" text-anchor="start" style="white-space: pre;" direction="ltr">User 2</text></g><g stroke-linecap="round"><g transform="translate(382.14410576730734 156.4821167694888) rotate(0 0.0928308825008628 57.55770113514737)"><path d="M1.08 -0.82 C0.97 18.43, -0.66 95.13, -1 114.57 M0.18 1.37 C0.47 20.87, 0.98 97.17, 1.18 115.93" stroke="#000000" stroke-width="2" fill="none"></path></g><g transform="translate(382.14410576730734 156.4821167694888) rotate(0 0.0928308825008628 57.55770113514737)"><path d="M2.56 115.9 L-4.24 101.04 L5.92 101.16 L0.37 116.02" stroke="none" stroke-width="0" fill="#000000" fill-rule="evenodd"></path><path d="M0.16 114.67 C-0.88 111.09, -1.08 109.39, -5.75 100.95 M1.34 116.52 C-1.8 110.84, -3.45 105.98, -5.16 102.21 M-5.04 103.32 C-3.93 103.09, 0.05 102, 6.85 102.21 M-4.89 102.5 C-2.41 102.82, 0.27 102, 7.52 102.55 M8.71 102.41 C5.65 107.91, 1.78 112.33, 2.17 116.79 M7.35 101.63 C5.23 106.52, 3.63 111.46, 0.91 115.72 M1.18 115.93 C1.18 115.93, 1.18 115.93, 1.18 115.93 M1.18 115.93 C1.18 115.93, 1.18 115.93, 1.18 115.93" stroke="#000000" stroke-width="2" fill="none"></path></g></g><mask></mask><g stroke-linecap="round"><g transform="translate(739.9394384160436 162.72654542655357) rotate(0 -0.7106300370215877 57.3320739653427)"><path d="M0.17 -0.6 C-0.2 18.58, -0.7 94.68, -1.22 114.05 M-1.21 1.7 C-1.72 21.13, -1.11 96.58, -1.59 115.27" stroke="#000000" stroke-width="2" fill="none"></path></g><g transform="translate(739.9394384160436 162.72654542655357) rotate(0 -0.7106300370215877 57.3320739653427)"><path d="M-1.37 115.29 L-8.74 101.74 L4.73 101.29 L-2.77 116.65" stroke="none" stroke-width="0" fill="#000000" fill-rule="evenodd"></path><path d="M-2.34 116.66 C-4.62 109.29, -5.03 105.46, -6.59 100.82 M-1.99 115.14 C-3.43 110.83, -4.74 107.25, -7.51 101.89 M-8.74 102.25 C-2.98 102.49, 0.38 102.47, 4.11 100.52 M-7.77 102.09 C-5.53 101.63, -2.1 101.17, 5.29 101.42 M6.28 101.65 C4.12 105.82, 0.78 106.13, -0.61 115.29 M4.71 101.09 C2.98 105.49, 1.16 110.86, -0.85 115.36 M-1.59 115.27 C-1.59 115.27, -1.59 115.27, -1.59 115.27 M-1.59 115.27 C-1.59 115.27, -1.59 115.27, -1.59 115.27" stroke="#000000" stroke-width="2" fill="none"></path></g></g><mask></mask><g stroke-linecap="round"><g transform="translate(793.3391160469839 775.7488328529178) rotate(0 -1.666199408158036 57.994964235320936)"><path d="M0.74 0.28 C0.02 19.62, -2.94 96.01, -3.7 115.02 M-0.33 -0.62 C-1.17 19.02, -3.46 97.28, -4.07 116.61" stroke="#000000" stroke-width="2" fill="none"></path></g><g transform="translate(793.3391160469839 775.7488328529178) rotate(0 -1.666199408158036 57.994964235320936)"><path d="M-5.18 115.29 L-8.55 103.41 L3.13 104.96 L-4.88 115.17" stroke="none" stroke-width="0" fill="#000000" fill-rule="evenodd"></path><path d="M-3.73 117.98 C-5.9 113.07, -8.8 106.11, -9.58 101.58 M-4.23 115.99 C-5.49 113.74, -7.43 110.25, -10.63 103.37 M-10.21 102.62 C-4.73 101.89, -0.82 102.81, 3.64 103.45 M-10.6 102.75 C-4.85 102.88, -0.83 102.5, 2.37 103.52 M1.35 103.61 C1.73 105.79, -2.59 109.89, -3.93 116.48 M2.25 102.47 C-0.14 108.21, -2.29 113.07, -3.99 116.89 M-4.07 116.61 C-4.07 116.61, -4.07 116.61, -4.07 116.61 M-4.07 116.61 C-4.07 116.61, -4.07 116.61, -4.07 116.61" stroke="#000000" stroke-width="2" fill="none"></path></g></g><mask></mask><g stroke-linecap="round"><g transform="translate(915.9345068721736 1404.4237292371522) rotate(0 -1.551107238913687 56.913087492752766)"><path d="M0.31 -0.31 C-0.3 19.1, -2.92 96.07, -3.41 115.34 M-0.99 -1.52 C-1.27 17.65, -0.83 94.44, -1.26 113.58" stroke="#000000" stroke-width="2" fill="none"></path></g><g transform="translate(915.9345068721736 1404.4237292371522) rotate(0 -1.551107238913687 56.913087492752766)"><path d="M-2.36 115.35 L-9.2 101.37 L6.22 98.97 L-1.68 114.3" stroke="none" stroke-width="0" fill="#000000" fill-rule="evenodd"></path><path d="M-1.65 112.23 C-2.29 108.84, -4.34 105.52, -7.15 100.4 M-0.64 113.6 C-2.7 109.41, -3.99 106.62, -6.9 100.51 M-7.78 99.4 C-2.77 99.02, -0.33 99.89, 6.12 99.14 M-7.67 99.62 C-5.18 100.04, -2.45 100, 5 100.04 M5.97 100.27 C2.53 105.43, -0.27 108.93, -2.06 112.68 M5.44 100.19 C3.09 103.12, 2.93 105.65, -1.28 114.22 M-1.26 113.58 C-1.26 113.58, -1.26 113.58, -1.26 113.58 M-1.26 113.58 C-1.26 113.58, -1.26 113.58, -1.26 113.58" stroke="#000000" stroke-width="2" fill="none"></path></g></g><mask></mask><g transform="translate(292.32738970677644 204.3297730194888) rotate(0 38.5 9.5)"><text x="0" y="13" font-family="Virgil, Segoe UI Emoji" font-size="14.797585227272732px" fill="#000000" text-anchor="start" style="white-space: pre;" direction="ltr">500 TKN </text></g><g transform="translate(572.035534451722 841.455348512829) rotate(0 41 9.5)"><text x="0" y="13" font-family="Virgil, Segoe UI Emoji" font-size="14.797585227272732px" fill="#000000" text-anchor="start" style="white-space: pre;" direction="ltr">1000 TKN </text></g><g transform="translate(695.955707850514 1469.4187547780489) rotate(0 36.5 9.5)"><text x="0" y="13" font-family="Virgil, Segoe UI Emoji" font-size="14.797585227272732px" fill="#000000" text-anchor="start" style="white-space: pre;" direction="ltr">597 TKN </text></g><g transform="translate(647.5626151341075 210.34763917655357) rotate(0 38.5 9.5)"><text x="0" y="13" font-family="Virgil, Segoe UI Emoji" font-size="14.797585227272732px" fill="#000000" text-anchor="start" style="white-space: pre;" direction="ltr">250 TKN </text></g><g transform="translate(522.7769182673073 195.9743042694888) rotate(0 55 9.5)"><text x="0" y="13" font-family="Virgil, Segoe UI Emoji" font-size="14.797585227272732px" fill="#000000" text-anchor="start" style="white-space: pre;" direction="ltr">223606 Share</text></g><g transform="translate(805.880756672922 826.4292530367309) rotate(0 54 9.5)"><text x="0" y="13" font-family="Virgil, Segoe UI Emoji" font-size="14.797585227272732px" fill="#000000" text-anchor="start" style="white-space: pre;" direction="ltr">394598 Share</text></g><g transform="translate(931.4527521608893 1455.2224760686383) rotate(0 55 9.5)"><text x="0" y="13" font-family="Virgil, Segoe UI Emoji" font-size="14.797585227272732px" fill="#000000" text-anchor="start" style="white-space: pre;" direction="ltr">223606 Share</text></g><g transform="translate(881.8946463841075 215.83592042655357) rotate(0 47 9.5)"><text x="0" y="13" font-family="Virgil, Segoe UI Emoji" font-size="14.797585227272732px" fill="#000000" text-anchor="start" style="white-space: pre;" direction="ltr">111803 Share</text></g><g stroke-linecap="round"><g transform="translate(515.7066057673073 270.9821167694888) rotate(0 -0.47689833100884016 -54.720455112680796)"><path d="M-1.18 0.31 C-1.47 -18.08, -0.78 -91.51, -0.63 -109.76 M0.4 -0.57 C-0.11 -18.83, -1.18 -90.51, -1.35 -108.37" stroke="#000000" stroke-width="2" fill="none"></path></g><g transform="translate(515.7066057673073 270.9821167694888) rotate(0 -0.47689833100884016 -54.720455112680796)"><path d="M0.23 -109.06 L4.35 -95.12 L-7.11 -94.39 L-3.22 -107.52" stroke="none" stroke-width="0" fill="#000000" fill-rule="evenodd"></path><path d="M-0.96 -107.83 C0.91 -102.04, 4.17 -97.75, 4.2 -94.18 M-1.71 -107.63 C0.55 -105.56, 1.3 -102.42, 5.05 -95.38 M4.69 -94.81 C1.03 -93.59, -2.65 -94.27, -8.01 -95.52 M5.4 -95.07 C0.44 -94.75, -3.38 -95.18, -7.77 -94.58 M-6.21 -94.15 C-6.15 -98.91, -5.41 -102.21, -1.98 -108.02 M-7.01 -94.45 C-6.72 -98.27, -4.37 -100, -0.88 -108.82 M-1.35 -108.37 C-1.35 -108.37, -1.35 -108.37, -1.35 -108.37 M-1.35 -108.37 C-1.35 -108.37, -1.35 -108.37, -1.35 -108.37" stroke="#000000" stroke-width="2" fill="none"></path></g></g><mask></mask><g stroke-linecap="round"><g transform="translate(666.2933237893953 893.0008311325464) rotate(0 -0.11692777491060724 -55.0618452279823)"><path d="M0.22 0.39 C0.55 -17.86, 0.82 -90.3, 0.89 -108.52 M-1.12 -0.45 C-0.85 -19.17, -0.21 -92.65, -0.06 -110.52" stroke="#000000" stroke-width="2" fill="none"></path></g><g transform="translate(666.2933237893953 893.0008311325464) rotate(0 -0.11692777491060724 -55.0618452279823)"><path d="M0.76 -108.99 L6.98 -98.49 L-4.55 -96.46 L-1.87 -111.96" stroke="none" stroke-width="0" fill="#000000" fill-rule="evenodd"></path><path d="M0.43 -110.51 C1.65 -107.98, 2.46 -104.05, 5.47 -95.81 M0.02 -110 C1.81 -105.07, 4.25 -100.43, 6.73 -97.55 M5.58 -97.84 C1.01 -97.76, -4.02 -96.39, -5.89 -96.37 M6.67 -96.87 C2.61 -97.26, -0.5 -97.24, -6.73 -97.18 M-6.8 -97.55 C-4.56 -100.68, -3.42 -104.28, -0.87 -109.02 M-7.11 -96.57 C-5.87 -99.86, -3.14 -103.21, 0.43 -109.93 M-0.06 -110.52 C-0.06 -110.52, -0.06 -110.52, -0.06 -110.52 M-0.06 -110.52 C-0.06 -110.52, -0.06 -110.52, -0.06 -110.52" stroke="#000000" stroke-width="2" fill="none"></path></g></g><mask></mask><g stroke-linecap="round"><g transform="translate(790.3824411981427 1522.1491924565657) rotate(0 -0.17406727266495636 -55.538193811206156)"><path d="M0.68 -0.3 C0.66 -18.28, -0.17 -90.8, -0.41 -108.94 M-0.43 -1.5 C-0.52 -19.74, -0.86 -92.49, -1.02 -110.78" stroke="#000000" stroke-width="2" fill="none"></path></g><g transform="translate(790.3824411981427 1522.1491924565657) rotate(0 -0.17406727266495636 -55.538193811206156)"><path d="M0.41 -109.73 L4.35 -97.64 L-6.55 -95.96 L-0.99 -111.73" stroke="none" stroke-width="0" fill="#000000" fill-rule="evenodd"></path><path d="M-1.4 -109.97 C1.29 -106.73, 2.84 -103.79, 5.25 -98.09 M-1.43 -110.11 C1.96 -105, 4.47 -100.57, 5.81 -97.51 M4.41 -97.16 C1.72 -96.13, -2.55 -98.22, -8.34 -97.84 M5.42 -97.44 C1.87 -97.43, -1.56 -97.05, -7.24 -96.91 M-6.35 -98.35 C-5.13 -102.74, -3.77 -108, -1.62 -110.25 M-7.15 -96.53 C-5.5 -101.7, -2.46 -105.66, -1.67 -111.14 M-1.02 -110.78 C-1.02 -110.78, -1.02 -110.78, -1.02 -110.78 M-1.02 -110.78 C-1.02 -110.78, -1.02 -110.78, -1.02 -110.78" stroke="#000000" stroke-width="2" fill="none"></path></g></g><mask></mask><g stroke-linecap="round"><g transform="translate(870.7219544118454 276.99998292655357) rotate(0 1.528689897217646 -54.58956154260784)"><path d="M-0.62 -0.62 C0.1 -18.97, 2.95 -90.74, 3.67 -108.99 M1.26 1.67 C1.95 -16.53, 2.87 -92.38, 3.23 -110.85" stroke="#000000" stroke-width="2" fill="none"></path></g><g transform="translate(870.7219544118454 276.99998292655357) rotate(0 1.528689897217646 -54.58956154260784)"><path d="M3.34 -110.97 L8.93 -98.34 L-1.93 -96.91 L3.25 -111.39" stroke="none" stroke-width="0" fill="#000000" fill-rule="evenodd"></path><path d="M2.46 -109.64 C5.5 -106.16, 5.61 -103.75, 8.64 -98.36 M3.15 -110.13 C5.35 -107.15, 6.5 -103.76, 9.27 -96.79 M10.25 -97.71 C7.31 -97.89, 2.37 -98.11, -2.52 -96.3 M9.44 -97.22 C5.04 -96.89, 1.21 -97.95, -2.71 -97.77 M-2.07 -98.8 C-2.06 -101.75, 1.9 -107.92, 4.51 -110.59 M-3.75 -97.18 C-0.61 -100.44, 0.59 -105.53, 3.98 -110.36 M3.23 -110.85 C3.23 -110.85, 3.23 -110.85, 3.23 -110.85 M3.23 -110.85 C3.23 -110.85, 3.23 -110.85, 3.23 -110.85" stroke="#000000" stroke-width="2" fill="none"></path></g></g><mask></mask><g stroke-linecap="round" transform="translate(450.9561483933792 310.8375947680586) rotate(0 49.3671875 27.125)"><path d="M13.56 0 M13.56 0 C31.32 -0.48, 49.44 1.33, 85.17 0 M13.56 0 C36.81 -0.28, 60.22 -0.91, 85.17 0 M85.17 0 C96.1 1.28, 96.81 2.68, 98.73 13.56 M85.17 0 C96.19 1.47, 100.62 2.4, 98.73 13.56 M98.73 13.56 C100.35 17.73, 99.85 25.2, 98.73 40.69 M98.73 13.56 C98.74 24.07, 98.42 34.06, 98.73 40.69 M98.73 40.69 C100.64 48.76, 94.92 53.93, 85.17 54.25 M98.73 40.69 C98.36 48.38, 93.85 52.18, 85.17 54.25 M85.17 54.25 C62.14 54.57, 40.49 55.25, 13.56 54.25 M85.17 54.25 C55.91 54.54, 28.92 53.79, 13.56 54.25 M13.56 54.25 C2.63 55.64, -1.55 50.54, 0 40.69 M13.56 54.25 C2.74 53.85, -1.48 51.02, 0 40.69 M0 40.69 C0.32 33.43, -0.09 24.45, 0 13.56 M0 40.69 C-0.08 33.32, -0.66 27.38, 0 13.56 M0 13.56 C-0.86 4.07, 3.67 0.06, 13.56 0 M0 13.56 C-0.42 4.5, 2.89 1.53, 13.56 0" stroke="#000000" stroke-width="2" fill="none"></path></g><g stroke-linecap="round" transform="translate(735.459485745271 930.3009993673049) rotate(0 42 27)"><path d="M13.5 0 M13.5 0 C35.25 0.21, 56.59 -0.44, 70.5 0 M13.5 0 C34.23 -0.99, 53.34 -0.3, 70.5 0 M70.5 0 C80.89 -0.92, 85.02 3.93, 84 13.5 M70.5 0 C79.42 1.74, 81.91 6.38, 84 13.5 M84 13.5 C82.74 20.61, 82.73 27.9, 84 40.5 M84 13.5 C83.84 22.56, 85.09 32.33, 84 40.5 M84 40.5 C83.99 49.13, 77.98 54.65, 70.5 54 M84 40.5 C82.43 48.73, 78.78 54.44, 70.5 54 M70.5 54 C51.39 53.79, 34.56 52.57, 13.5 54 M70.5 54 C47.74 54.77, 26.99 53.77, 13.5 54 M13.5 54 C5.57 52.01, 0.34 51, 0 40.5 M13.5 54 C3.76 55.51, 1.81 49.31, 0 40.5 M0 40.5 C1.22 36.14, 0.76 29.56, 0 13.5 M0 40.5 C-0.1 34.29, -0.94 28.73, 0 13.5 M0 13.5 C-0.47 4.24, 5.47 -0.49, 13.5 0 M0 13.5 C0.6 6.12, 6.6 0.95, 13.5 0" stroke="#000000" stroke-width="2" fill="none"></path></g><g transform="translate(740.959485745271 945.3009993673049) rotate(0 36.5 12)"><text x="36.5" y="17" font-family="Virgil, Segoe UI Emoji" font-size="18.6780753968254px" fill="#000000" text-anchor="middle" style="white-space: pre;" direction="ltr">730007</text></g><g stroke-linecap="round" transform="translate(853.2203441134557 1560.5234741694428) rotate(0 48.83711701512675 28.00986366702)"><path d="M14 0 M14 0 C29.74 1.07, 43.81 0.79, 83.67 0 M14 0 C33.83 0.43, 52.34 -0.14, 83.67 0 M83.67 0 C94.79 1.4, 99.3 6.19, 97.67 14 M83.67 0 C92.56 1.26, 96.79 4.18, 97.67 14 M97.67 14 C98.03 20.98, 99.43 27.01, 97.67 42.01 M97.67 14 C97.19 19.33, 96.95 25.7, 97.67 42.01 M97.67 42.01 C96.98 51.2, 92.49 56.07, 83.67 56.02 M97.67 42.01 C98.35 51.49, 93.85 57.25, 83.67 56.02 M83.67 56.02 C59.99 56.39, 38.48 55.26, 14 56.02 M83.67 56.02 C68.86 56.48, 52.49 56.43, 14 56.02 M14 56.02 C6.3 55.22, -0.06 53.07, 0 42.01 M14 56.02 C6.5 54.04, -1.11 49.94, 0 42.01 M0 42.01 C1.48 35.47, 1.38 24.78, 0 14 M0 42.01 C-0.17 36.62, -0.69 30.88, 0 14 M0 14 C0.88 4.57, 4.59 -1.38, 14 0 M0 14 C-1.26 6.7, 2.73 1.65, 14 0" stroke="#000000" stroke-width="2" fill="none"></path></g><g stroke-linecap="round" transform="translate(796.8567811193707 313.159917413792) rotate(0 47.49624786152526 26.533528570581467)"><path d="M13.27 0 M13.27 0 C41.76 1.16, 68.68 -0.73, 81.73 0 M13.27 0 C34.31 0.37, 56.5 0.43, 81.73 0 M81.73 0 C92.5 1.68, 95.87 5.13, 94.99 13.27 M81.73 0 C91.62 -0.26, 96.14 2.78, 94.99 13.27 M94.99 13.27 C94.22 23.87, 93.94 29.92, 94.99 39.8 M94.99 13.27 C95.26 20.05, 94.22 25.51, 94.99 39.8 M94.99 39.8 C94.82 47.41, 92 52.13, 81.73 53.07 M94.99 39.8 C93.01 50.85, 89.1 55.27, 81.73 53.07 M81.73 53.07 C59.54 51.85, 42.5 53.67, 13.27 53.07 M81.73 53.07 C60.36 52.35, 39.36 52.62, 13.27 53.07 M13.27 53.07 C4.91 55.04, 1.97 48.89, 0 39.8 M13.27 53.07 C2.78 55.34, 1.52 49.05, 0 39.8 M0 39.8 C1.32 30.89, 1.56 24.93, 0 13.27 M0 39.8 C0.33 34.1, -0.33 29.31, 0 13.27 M0 13.27 C-0.05 3.12, 3.93 -1.29, 13.27 0 M0 13.27 C0.25 4.45, 3.39 0.12, 13.27 0" stroke="#000000" stroke-width="2" fill="none"></path></g><g stroke-linecap="round" transform="translate(374.99010837357037 926.3361765958085) rotate(0 47.171875 27.125)"><path d="M13.56 0 M13.56 0 C35.76 -0.27, 56.05 0.67, 80.78 0 M13.56 0 C31.05 0.45, 48.07 -1.35, 80.78 0 M80.78 0 C91.03 1.47, 94.98 4.18, 94.34 13.56 M80.78 0 C91.99 -1.62, 95.45 6.09, 94.34 13.56 M94.34 13.56 C92.67 25.27, 95.64 33.75, 94.34 40.69 M94.34 13.56 C94.53 20.05, 93.46 25.93, 94.34 40.69 M94.34 40.69 C92.91 50.6, 90.78 52.72, 80.78 54.25 M94.34 40.69 C96.36 50.92, 90.44 53.57, 80.78 54.25 M80.78 54.25 C67.84 52.79, 50.86 56.1, 13.56 54.25 M80.78 54.25 C62.29 53.47, 41.58 53.89, 13.56 54.25 M13.56 54.25 C5.23 52.98, 0.34 47.82, 0 40.69 M13.56 54.25 C3.08 54.24, -1.86 50.49, 0 40.69 M0 40.69 C-0.77 35.75, 0.83 27.6, 0 13.56 M0 40.69 C1.16 31.02, -0.79 21.61, 0 13.56 M0 13.56 C-1.25 4.78, 4.1 1.12, 13.56 0 M0 13.56 C2.03 4.47, 4.45 -2.18, 13.56 0" stroke="#1864ab" stroke-width="2" fill="none"></path></g><g stroke-linecap="round" transform="translate(363.41501508814747 1542.135701341893) rotate(0 50.613010646497514 26.42512525291454)"><path d="M13.21 0 M13.21 0 C35.95 -0.29, 61.73 1.54, 88.01 0 M13.21 0 C30.08 -0.48, 46.4 0.41, 88.01 0 M88.01 0 C96.33 -0.66, 99.79 3.71, 101.23 13.21 M88.01 0 C94.84 -0.02, 103.17 3.01, 101.23 13.21 M101.23 13.21 C100.44 21.31, 101.14 31.41, 101.23 39.64 M101.23 13.21 C100.4 20.04, 101.84 24.88, 101.23 39.64 M101.23 39.64 C100.33 47.54, 96.92 51.01, 88.01 52.85 M101.23 39.64 C102.35 48.17, 98.25 50.6, 88.01 52.85 M88.01 52.85 C74.42 53.03, 56.78 54.03, 13.21 52.85 M88.01 52.85 C65.15 53.25, 42.16 52.74, 13.21 52.85 M13.21 52.85 C5.03 52.8, -0.06 49.52, 0 39.64 M13.21 52.85 C4.3 54.41, -2.06 49.64, 0 39.64 M0 39.64 C-0.52 30.52, 0.5 20.5, 0 13.21 M0 39.64 C0.82 34.11, 0.84 27.6, 0 13.21 M0 13.21 C0.98 3.09, 3.47 -1.85, 13.21 0 M0 13.21 C0.85 5.21, 6.13 -0.08, 13.21 0" stroke="#1864ab" stroke-width="2" fill="none"></path></g><g stroke-linecap="round" transform="translate(562.9008495261805 2269.8330031702553) rotate(0 43.46010574236425 27.47956209654103)"><path d="M13.74 0 M13.74 0 C37.24 -1.22, 57.91 -0.73, 73.18 0 M13.74 0 C28.93 -0.6, 42.65 0.11, 73.18 0 M73.18 0 C82.76 1.49, 86.44 3.97, 86.92 13.74 M73.18 0 C84.56 0.97, 85.65 6.25, 86.92 13.74 M86.92 13.74 C85.1 23.73, 87.12 32.16, 86.92 41.22 M86.92 13.74 C87.23 19.7, 87.06 28.01, 86.92 41.22 M86.92 41.22 C86.82 50.37, 81.77 53.18, 73.18 54.96 M86.92 41.22 C85.16 50.73, 83.82 53.84, 73.18 54.96 M73.18 54.96 C51.42 56.71, 30.04 57.21, 13.74 54.96 M73.18 54.96 C50.58 54.7, 28.59 56.47, 13.74 54.96 M13.74 54.96 C4.03 52.96, -0.48 51.29, 0 41.22 M13.74 54.96 C5.78 56.82, 1.18 52, 0 41.22 M0 41.22 C0.29 34.14, -1.84 26.15, 0 13.74 M0 41.22 C0.04 34.59, 0.73 29.85, 0 13.74 M0 13.74 C1.46 5.07, 2.91 -1.26, 13.74 0 M0 13.74 C-1.21 5.5, 3.09 2.06, 13.74 0" stroke="#1864ab" stroke-width="2" fill="none"></path></g><g stroke-linecap="round" transform="translate(147.8125 307.6322090551846) rotate(0 31.3125 27.125)"><path d="M13.56 0 M13.56 0 C26.85 -0.49, 39.41 -1.23, 49.06 0 M13.56 0 C24.09 -0.28, 34.51 -0.05, 49.06 0 M49.06 0 C58.66 0.03, 62.03 4.28, 62.63 13.56 M49.06 0 C59.8 -0.7, 63.92 3.29, 62.63 13.56 M62.63 13.56 C61.3 24.86, 63.84 31.44, 62.63 40.69 M62.63 13.56 C62.44 21.77, 62.18 31.32, 62.63 40.69 M62.63 40.69 C64.56 48.92, 57.44 53.46, 49.06 54.25 M62.63 40.69 C61.18 49.25, 57.84 55.8, 49.06 54.25 M49.06 54.25 C40.42 54.64, 32.46 54.28, 13.56 54.25 M49.06 54.25 C36.4 54.27, 26.13 53.93, 13.56 54.25 M13.56 54.25 C3.4 52.96, 0.1 51.6, 0 40.69 M13.56 54.25 C2.74 53.8, 0.13 51.64, 0 40.69 M0 40.69 C-0.9 29.6, 1.07 20.67, 0 13.56 M0 40.69 C1.04 32.28, 0.04 21.7, 0 13.56 M0 13.56 C0.28 3.74, 4.95 0.56, 13.56 0 M0 13.56 C1.87 3.38, 4.41 -1.5, 13.56 0" stroke="#000000" stroke-width="2" fill="none"></path></g><g stroke-linecap="round" transform="translate(357.08551201730734 301.5328980194888) rotate(0 36.771484375 34.078125)"><path d="M22.69 1.89 C28.86 -0.87, 38.93 -1.15, 46.09 0.61 C53.25 2.38, 61.05 7.33, 65.65 12.48 C70.26 17.63, 73.3 25.08, 73.71 31.51 C74.12 37.94, 72 45.27, 68.09 51.05 C64.19 56.82, 56.88 63.46, 50.29 66.16 C43.71 68.86, 35.57 69, 28.59 67.24 C21.61 65.47, 13.02 60.75, 8.42 55.57 C3.82 50.39, 1.5 42.8, 0.97 36.16 C0.45 29.52, 0.96 21.56, 5.29 15.71 C9.61 9.86, 22.6 3.63, 26.91 1.07 C31.22 -1.48, 30.87 -0.24, 31.14 0.38 M49.08 0.24 C55.8 1.94, 62.71 9.23, 66.69 15.02 C70.66 20.8, 73.06 28.49, 72.92 34.98 C72.78 41.47, 69.9 48.82, 65.86 53.97 C61.81 59.11, 55.47 63.63, 48.64 65.84 C41.82 68.06, 32.03 69.09, 24.91 67.26 C17.79 65.42, 9.96 60.38, 5.93 54.83 C1.89 49.28, 0.33 41.04, 0.72 33.98 C1.1 26.92, 4.23 18.08, 8.24 12.48 C12.26 6.88, 18.02 2.05, 24.8 0.38 C31.58 -1.29, 45.23 2.28, 48.92 2.47 C52.61 2.66, 47.16 1.21, 46.92 1.53" stroke="#000000" stroke-width="2" fill="none"></path></g><g stroke-linecap="round" transform="translate(634.3580279989251 919.7125195426065) rotate(0 36 34)"><path d="M31.86 0.89 C38.61 -0.4, 48.63 0.77, 54.77 4.01 C60.9 7.25, 65.84 14.23, 68.69 20.34 C71.54 26.45, 73.25 34.23, 71.89 40.68 C70.53 47.13, 65.91 54.38, 60.54 59.03 C55.17 63.68, 46.9 67.71, 39.65 68.58 C32.4 69.44, 23.15 67.53, 17.02 64.23 C10.9 60.92, 5.68 55.11, 2.9 48.76 C0.12 42.4, -1.13 32.9, 0.35 26.09 C1.82 19.29, 5.6 12.2, 11.72 7.91 C17.85 3.63, 31.89 1.4, 37.1 0.37 C42.32 -0.66, 43.03 1.22, 43.02 1.73 M52.22 2.64 C58.28 4.96, 65.5 11.63, 68.64 17.69 C71.77 23.75, 72.2 32.21, 71.03 39.01 C69.86 45.81, 66.76 53.77, 61.62 58.48 C56.48 63.2, 47.31 66.38, 40.19 67.32 C33.08 68.26, 24.89 67.31, 18.93 64.14 C12.97 60.97, 7.28 54.37, 4.41 48.3 C1.55 42.23, 0.46 34.32, 1.75 27.72 C3.04 21.11, 7.31 13.1, 12.16 8.65 C17.01 4.2, 24.31 1.69, 30.84 1.02 C37.36 0.34, 48 3.98, 51.3 4.59 C54.61 5.19, 50.56 4.35, 50.67 4.64" stroke="#000000" stroke-width="2" fill="none"></path></g><g transform="translate(646.4479200185365 941.2125195426065) rotate(0 24.5 12.5)"><text x="24.5" y="18" font-family="Virgil, Segoe UI Emoji" font-size="20px" fill="#000000" text-anchor="middle" style="white-space: pre;" direction="ltr">1850</text></g><g stroke-linecap="round" transform="translate(760.9264758274503 1550.8502153779957) rotate(0 36.771484375 34.078125)"><path d="M41.12 -0.33 C48.06 0.03, 57.31 4.61, 62.65 9.16 C68 13.72, 71.8 20.34, 73.19 27 C74.58 33.67, 73.96 42.88, 71 49.15 C68.05 55.42, 61.92 61.41, 55.44 64.63 C48.96 67.85, 39.48 69.42, 32.13 68.45 C24.78 67.48, 16.64 63.3, 11.33 58.81 C6.02 54.32, 1.7 48.05, 0.25 41.54 C-1.19 35.03, -0.44 25.83, 2.65 19.75 C5.74 13.67, 11.27 8.18, 18.8 5.03 C26.34 1.89, 41.95 0.93, 47.84 0.87 C53.74 0.82, 54.28 4.11, 54.16 4.72 M27.75 0.63 C34.27 -1.2, 43.86 0.26, 50.57 2.92 C57.29 5.57, 64.09 10.93, 68.04 16.56 C71.99 22.19, 74.86 29.97, 74.26 36.69 C73.66 43.42, 69.39 51.83, 64.42 56.9 C59.46 61.97, 51.51 65.78, 44.47 67.1 C37.44 68.41, 28.9 67.38, 22.21 64.79 C15.53 62.2, 7.96 56.98, 4.36 51.56 C0.76 46.13, -0.15 39.03, 0.61 32.26 C1.37 25.49, 4.34 15.94, 8.93 10.94 C13.51 5.93, 25.03 3.79, 28.12 2.24 C31.2 0.69, 27.12 1.09, 27.44 1.63" stroke="#000000" stroke-width="2" fill="none"></path></g><g stroke-linecap="round" transform="translate(712.2852713841075 307.55076417655357) rotate(0 36.771484375 34.078125)"><path d="M51.09 2.08 C57.56 4.16, 64.27 10.85, 68 16.73 C71.72 22.61, 73.91 30.55, 73.44 37.37 C72.97 44.18, 69.91 52.54, 65.18 57.6 C60.44 62.66, 52.15 66.47, 45.03 67.73 C37.9 68.99, 29.02 68.03, 22.43 65.16 C15.84 62.3, 9.14 56.23, 5.51 50.54 C1.89 44.86, -0.08 37.65, 0.68 31.05 C1.43 24.46, 5.21 16.1, 10.04 10.96 C14.86 5.82, 21.71 1.05, 29.63 0.2 C37.54 -0.65, 51.74 3.75, 57.54 5.85 C63.34 7.96, 64.63 12.14, 64.45 12.84 M19.28 4.73 C25.02 1.26, 34.46 -1.58, 41.96 -0.85 C49.47 -0.12, 58.88 4.17, 64.31 9.11 C69.74 14.06, 73.6 21.85, 74.55 28.82 C75.5 35.78, 73.77 45.19, 69.99 50.92 C66.22 56.64, 58.25 60.35, 51.9 63.16 C45.54 65.96, 38.7 68.37, 31.86 67.74 C25.01 67.11, 16.01 64.14, 10.82 59.36 C5.62 54.57, 2.03 45.83, 0.69 39.02 C-0.64 32.22, -0.29 24.36, 2.82 18.52 C5.93 12.69, 16.15 6.15, 19.35 4.02 C22.54 1.89, 21.56 5.47, 22.01 5.74" stroke="#000000" stroke-width="2" fill="none"></path></g><g stroke-linecap="round" transform="translate(281.73620212357037 918.4494578458085) rotate(0 36.771484375 34.078125)"><path d="M25.55 2.1 C31.92 0, 41.87 0.77, 48.69 2.67 C55.5 4.57, 62.2 8.07, 66.44 13.51 C70.68 18.95, 74.13 28.51, 74.14 35.32 C74.15 42.13, 70.78 49.25, 66.51 54.35 C62.25 59.45, 55.41 63.83, 48.55 65.94 C41.69 68.05, 32.23 68.93, 25.37 67.01 C18.5 65.1, 11.61 60.18, 7.36 54.45 C3.1 48.72, -0.31 39.34, -0.16 32.63 C-0.02 25.92, 3.25 19.66, 8.24 14.18 C13.24 8.71, 25.7 1.95, 29.79 -0.22 C33.88 -2.4, 32.64 0.3, 32.79 1.12 M24.6 2.86 C30.44 0.61, 38.54 0.83, 45.5 2.57 C52.46 4.31, 61.76 8.51, 66.36 13.31 C70.95 18.1, 72.91 24.6, 73.07 31.34 C73.23 38.08, 71.05 48.2, 67.32 53.75 C63.58 59.3, 57.55 62.27, 50.65 64.64 C43.76 67.02, 33.11 69.63, 25.96 68.02 C18.82 66.41, 12.05 60.19, 7.78 54.98 C3.5 49.77, 0.84 43.53, 0.34 36.77 C-0.16 30.01, 0.95 20.09, 4.75 14.41 C8.56 8.73, 20.11 4.57, 23.19 2.67 C26.28 0.78, 23.15 2.75, 23.25 3.03" stroke="#1864ab" stroke-width="2" fill="none"></path></g><g stroke-linecap="round" transform="translate(271.3794489811045 1533.2854783104112) rotate(0 36.771484375 34.078125)"><path d="M29.32 -0.03 C35.96 -1.67, 46.44 -0.61, 53.19 2.35 C59.94 5.31, 66.52 11.74, 69.82 17.7 C73.12 23.67, 74.16 31.56, 72.99 38.13 C71.82 44.71, 67.83 52.24, 62.78 57.14 C57.72 62.05, 49.5 66.38, 42.68 67.57 C35.86 68.75, 28.17 67.11, 21.85 64.26 C15.53 61.41, 8.48 56.28, 4.74 50.46 C1.01 44.63, -1.41 35.94, -0.57 29.3 C0.28 22.66, 4.22 15.58, 9.8 10.62 C15.37 5.65, 28.63 1.01, 32.88 -0.5 C37.13 -2.02, 35.46 0.69, 35.29 1.52 M45.02 1.1 C51.61 2.43, 58.88 7.67, 63.58 12.93 C68.29 18.19, 72.8 26.36, 73.28 32.66 C73.76 38.97, 70.5 45.28, 66.47 50.75 C62.43 56.22, 55.3 62.71, 49.09 65.48 C42.87 68.25, 35.99 68.77, 29.18 67.35 C22.37 65.92, 13.06 62.24, 8.22 56.92 C3.39 51.6, 0.79 42.25, 0.18 35.43 C-0.43 28.62, 0.49 21.55, 4.54 16.04 C8.58 10.54, 17.47 4.82, 24.44 2.39 C31.4 -0.03, 42.83 1.62, 46.34 1.49 C49.85 1.37, 45.61 1.18, 45.49 1.64" stroke="#1864ab" stroke-width="2" fill="none"></path></g><g stroke-linecap="round" transform="translate(450.9789745261796 2260.5634719202553) rotate(0 36.771484375 34.078125)"><path d="M44.19 0.48 C51.18 1.24, 59.68 5.27, 64.58 10.18 C69.47 15.1, 72.79 23.13, 73.54 30 C74.3 36.87, 72.7 45.61, 69.11 51.39 C65.53 57.17, 58.43 61.92, 52.02 64.68 C45.61 67.44, 37.78 69.05, 30.66 67.94 C23.54 66.83, 14.35 62.87, 9.29 58.01 C4.22 53.14, 1.18 45.67, 0.27 38.76 C-0.65 31.84, 0.16 22.45, 3.81 16.52 C7.46 10.59, 14.7 5.77, 22.16 3.19 C29.62 0.6, 43.63 1.12, 48.58 1 C53.52 0.87, 52.14 1.97, 51.81 2.45 M35.11 -0.39 C41.55 -1.32, 49.64 0.58, 55.69 4.48 C61.74 8.39, 68.79 16.43, 71.42 23.06 C74.06 29.7, 73.26 37.84, 71.49 44.31 C69.72 50.78, 66.22 57.75, 60.8 61.88 C55.38 66.01, 46.12 68.76, 38.96 69.09 C31.81 69.42, 23.8 67.93, 17.87 63.86 C11.95 59.79, 5.95 51.3, 3.42 44.69 C0.88 38.09, 1.13 30.55, 2.67 24.24 C4.21 17.92, 7 10.9, 12.65 6.8 C18.3 2.69, 33.08 0.7, 36.58 -0.38 C40.08 -1.45, 33.75 -0.41, 33.65 0.35" stroke="#1864ab" stroke-width="2" fill="none"></path></g><g stroke-linecap="round" transform="translate(35.890625 298.3626778051846) rotate(0 36.771484375 34.078125)"><path d="M21.77 2.09 C28.04 -0.93, 37.92 -1.25, 45.12 0.27 C52.32 1.79, 60.2 6.1, 64.95 11.2 C69.71 16.3, 73.12 24.17, 73.65 30.85 C74.18 37.52, 71.73 45.57, 68.15 51.27 C64.56 56.97, 58.62 62.44, 52.15 65.03 C45.69 67.62, 36.41 68.15, 29.36 66.81 C22.3 65.47, 14.61 62.03, 9.82 57 C5.03 51.97, 1.28 43.23, 0.62 36.62 C-0.04 30, 1.95 23.06, 5.86 17.32 C9.77 11.59, 20.53 4.72, 24.07 2.22 C27.6 -0.29, 26.75 1.96, 27.09 2.27 M32.2 -0.3 C39.02 -1.84, 48.16 0.19, 54.46 3.57 C60.76 6.94, 66.79 13.89, 70.01 19.95 C73.22 26.01, 75.33 33.21, 73.77 39.91 C72.21 46.62, 66.24 55.5, 60.65 60.2 C55.06 64.89, 47.32 67.54, 40.21 68.1 C33.09 68.65, 24.04 66.85, 17.95 63.51 C11.87 60.17, 6.66 54.34, 3.7 48.05 C0.74 41.76, -1.24 32.15, 0.2 25.76 C1.63 19.38, 6.92 14.13, 12.31 9.73 C17.7 5.33, 29.28 0.82, 32.54 -0.64 C35.81 -2.1, 31.58 0.44, 31.92 0.95" stroke="#000000" stroke-width="2" fill="none"></path></g><g transform="translate(370.69098076730734 276.6696167694888) rotate(0 21.5 12.5)"><text x="0" y="18" font-family="Virgil, Segoe UI Emoji" font-size="20px" fill="#000000" text-anchor="start" style="white-space: pre;" direction="ltr">TKN</text></g><g transform="translate(649.4692300228326 896.2001960964594) rotate(0 21.5 12.5)"><text x="0" y="18" font-family="Virgil, Segoe UI Emoji" font-size="20px" fill="#000000" text-anchor="start" style="white-space: pre;" direction="ltr">TKN</text></g><g transform="translate(773.8344706700836 1525.3485574204788) rotate(0 21.5 12.5)"><text x="0" y="18" font-family="Virgil, Segoe UI Emoji" font-size="20px" fill="#000000" text-anchor="start" style="white-space: pre;" direction="ltr">TKN</text></g><g transform="translate(725.8907401341075 282.68748292655357) rotate(0 21.5 12.5)"><text x="0" y="18" font-family="Virgil, Segoe UI Emoji" font-size="20px" fill="#000000" text-anchor="start" style="white-space: pre;" direction="ltr">TKN</text></g><g transform="translate(295.34167087357037 893.5861765958085) rotate(0 21.5 12.5)"><text x="0" y="18" font-family="Virgil, Segoe UI Emoji" font-size="20px" fill="#1864ab" text-anchor="start" style="white-space: pre;" direction="ltr">TKN</text></g><g transform="translate(284.9849177311045 1508.4221970604112) rotate(0 21.5 12.5)"><text x="0" y="18" font-family="Virgil, Segoe UI Emoji" font-size="20px" fill="#1864ab" text-anchor="start" style="white-space: pre;" direction="ltr">TKN</text></g><g transform="translate(464.5844432761796 2235.7001906702553) rotate(0 21.5 12.5)"><text x="0" y="18" font-family="Virgil, Segoe UI Emoji" font-size="20px" fill="#1864ab" text-anchor="start" style="white-space: pre;" direction="ltr">TKN</text></g><g transform="translate(48.857969953719135 273.63277488965315) rotate(0 21.5 12.5)"><text x="0" y="18" font-family="Virgil, Segoe UI Emoji" font-size="20px" fill="#000000" text-anchor="start" style="white-space: pre;" direction="ltr">TKN</text></g><g transform="translate(472.15973076730734 278.2125855194888) rotate(0 28.5 12.5)"><text x="0" y="18" font-family="Virgil, Segoe UI Emoji" font-size="20px" fill="#000000" text-anchor="start" style="white-space: pre;" direction="ltr">Share</text></g><g transform="translate(748.8865779505968 897.7431648464594) rotate(0 26.5 12)"><text x="0" y="17" font-family="Virgil, Segoe UI Emoji" font-size="18.6780753968254px" fill="#000000" text-anchor="start" style="white-space: pre;" direction="ltr">Share</text></g><g transform="translate(875.3032206700841 1526.8915261704788) rotate(0 28.5 12.5)"><text x="0" y="18" font-family="Virgil, Segoe UI Emoji" font-size="20px" fill="#000000" text-anchor="start" style="white-space: pre;" direction="ltr">Share</text></g><g transform="translate(827.3594901341075 284.23045167655357) rotate(0 28.5 12.5)"><text x="0" y="18" font-family="Virgil, Segoe UI Emoji" font-size="20px" fill="#000000" text-anchor="start" style="white-space: pre;" direction="ltr">Share</text></g><g transform="translate(396.81042087357037 895.1291453458085) rotate(0 28.5 12.5)"><text x="0" y="18" font-family="Virgil, Segoe UI Emoji" font-size="20px" fill="#1864ab" text-anchor="start" style="white-space: pre;" direction="ltr">Share</text></g><g transform="translate(386.4536677311045 1509.9651658104112) rotate(0 28.5 12.5)"><text x="0" y="18" font-family="Virgil, Segoe UI Emoji" font-size="20px" fill="#1864ab" text-anchor="start" style="white-space: pre;" direction="ltr">Share</text></g><g transform="translate(566.0531932761805 2237.2431594202553) rotate(0 28.5 12.5)"><text x="0" y="18" font-family="Virgil, Segoe UI Emoji" font-size="20px" fill="#1864ab" text-anchor="start" style="white-space: pre;" direction="ltr">Share</text></g><g transform="translate(150.96484375 275.0423653051846) rotate(0 28.5 12.5)"><text x="0" y="18" font-family="Virgil, Segoe UI Emoji" font-size="20px" fill="#000000" text-anchor="start" style="white-space: pre;" direction="ltr">Share</text></g><g transform="translate(65.70703125 320.1790840551846) rotate(0 8 12.5)"><text x="0" y="18" font-family="Virgil, Segoe UI Emoji" font-size="20px" fill="#000000" text-anchor="start" style="white-space: pre;" direction="ltr">0</text></g><g transform="translate(371.0306434698606 323.39415825169624) rotate(0 21 12.5)"><text x="0" y="18" font-family="Virgil, Segoe UI Emoji" font-size="20px" fill="#000000" text-anchor="start" style="white-space: pre;" direction="ltr">500</text></g><g transform="translate(774.0422317628031 1573.904734505881) rotate(0 23.5 12.5)"><text x="0" y="18" font-family="Virgil, Segoe UI Emoji" font-size="20px" fill="#000000" text-anchor="start" style="white-space: pre;" direction="ltr">1353</text></g><g transform="translate(730.9521976040753 328.44807597451614) rotate(0 19.5 12.5)"><text x="0" y="18" font-family="Virgil, Segoe UI Emoji" font-size="20px" fill="#000000" text-anchor="start" style="white-space: pre;" direction="ltr">750</text></g><g transform="translate(296.2467882965609 941.0381415759664) rotate(0 21.5 12.5)"><text x="0" y="18" font-family="Virgil, Segoe UI Emoji" font-size="20px" fill="#1864ab" text-anchor="start" style="white-space: pre;" direction="ltr">850</text></g><g transform="translate(285.6182341783775 1555.5697982864447) rotate(0 23 12.5)"><text x="0" y="18" font-family="Virgil, Segoe UI Emoji" font-size="20px" fill="#1864ab" text-anchor="start" style="white-space: pre;" direction="ltr">1950</text></g><g transform="translate(460.17428630113955 2280.7590220925276) rotate(0 23 12.5)"><text x="0" y="18" font-family="Virgil, Segoe UI Emoji" font-size="20px" fill="#1864ab" text-anchor="start" style="white-space: pre;" direction="ltr">1453</text></g><g transform="translate(457.6574913104077 325.47551183298594) rotate(0 41.5 12.5)"><text x="0" y="18" font-family="Virgil, Segoe UI Emoji" font-size="20px" fill="#000000" text-anchor="start" style="white-space: pre;" direction="ltr">223606</text></g><g transform="translate(865.1223517731532 1575.6478924106405) rotate(0 36.5 12.5)"><text x="0" y="18" font-family="Virgil, Segoe UI Emoji" font-size="20px" fill="#000000" text-anchor="start" style="white-space: pre;" direction="ltr">506401</text></g><g transform="translate(806.022174827963 326.7866828209263) rotate(0 40 12.5)"><text x="0" y="18" font-family="Virgil, Segoe UI Emoji" font-size="20px" fill="#000000" text-anchor="start" style="white-space: pre;" direction="ltr">335409</text></g><g transform="translate(385.0532629259319 939.9054036863157) rotate(0 40 12.5)"><text x="0" y="18" font-family="Virgil, Segoe UI Emoji" font-size="20px" fill="#1864ab" text-anchor="start" style="white-space: pre;" direction="ltr">335409</text></g><g transform="translate(377.4708429617382 1558.4531964040377) rotate(0 39 12.5)"><text x="0" y="18" font-family="Virgil, Segoe UI Emoji" font-size="20px" fill="#1864ab" text-anchor="start" style="white-space: pre;" direction="ltr">730007</text></g><g transform="translate(571.5856338281483 2286.6711396763394) rotate(0 36.5 12.5)"><text x="0" y="18" font-family="Virgil, Segoe UI Emoji" font-size="20px" fill="#1864ab" text-anchor="start" style="white-space: pre;" direction="ltr">506401</text></g><g transform="translate(171.4140625 321.3353340551846) rotate(0 8 12.5)"><text x="0" y="18" font-family="Virgil, Segoe UI Emoji" font-size="20px" fill="#000000" text-anchor="start" style="white-space: pre;" direction="ltr">0</text></g><g stroke-linecap="round"><g transform="translate(720.9468544870869 467.4643090644068) rotate(0 -0.5158423898654405 90.57385550306384)"><path d="M0.46 -0.81 C0.37 29.34, -0.48 150.29, -1.1 180.34 M-0.76 1.37 C-0.87 31.8, -1.44 152.11, -1.49 181.96" stroke="#000000" stroke-width="2" fill="none"></path></g><g transform="translate(720.9468544870869 467.4643090644068) rotate(0 -0.5158423898654405 90.57385550306384)"><path d="M-2.59 181.81 L-6.27 169.41 L4.75 168.77 L0.39 181.62" stroke="none" stroke-width="0" fill="#000000" fill-rule="evenodd"></path><path d="M-2.5 183.31 C-2.8 177.13, -5.44 176.08, -6.69 169.67 M-1.58 182.42 C-2.49 179.14, -4.59 175.32, -7.19 167.62 M-8.44 167.56 C-2.52 168.99, 2.82 168.52, 4.71 168.7 M-8.05 168.26 C-3.2 168.42, -0.26 168.59, 4.31 168.28 M3.69 169.58 C3.77 173.96, -0.53 179.24, -0.97 182.84 M5.27 168.58 C1.96 173.59, 0.46 178.63, -1.35 181.39 M-1.49 181.96 C-1.49 181.96, -1.49 181.96, -1.49 181.96 M-1.49 181.96 C-1.49 181.96, -1.49 181.96, -1.49 181.96" stroke="#000000" stroke-width="2" fill="none"></path></g></g><mask></mask><g stroke-linecap="round"><g transform="translate(703.9609560827024 1055.2080382335685) rotate(0 -0.6417079287550678 93.30326885640193)"><path d="M-1.04 -0.64 C-1.26 30.28, -1.25 154.94, -1.32 186.09 M0.62 1.64 C0.3 32.64, -1.48 156.31, -1.9 187.24" stroke="#000000" stroke-width="2" fill="none"></path></g><g transform="translate(703.9609560827024 1055.2080382335685) rotate(0 -0.6417079287550678 93.30326885640193)"><path d="M-3.74 186.2 L-8.49 171.66 L5.99 173.41 L-1.56 187.78" stroke="none" stroke-width="0" fill="#000000" fill-rule="evenodd"></path><path d="M-2.7 188.12 C-4.72 183.81, -6.37 178.22, -8.93 174.13 M-1.98 187.91 C-3.63 181.57, -6.07 176.67, -8.22 174.09 M-8.12 172.98 C-4.47 174.95, 0.46 173, 4.03 173.63 M-7.79 173.3 C-4.78 173.45, -1.88 173.03, 4.83 173.73 M5.8 173.73 C4.12 178.08, 2.68 180.89, -0.77 186.58 M4.82 174.05 C2.78 178.18, 1.47 181.8, -1.74 187.58 M-1.9 187.24 C-1.9 187.24, -1.9 187.24, -1.9 187.24 M-1.9 187.24 C-1.9 187.24, -1.9 187.24, -1.9 187.24" stroke="#000000" stroke-width="2" fill="none"></path></g></g><mask></mask><g stroke-linecap="round"><g transform="translate(684.7498702262811 1701.601722098398) rotate(0 -0.3015655273696325 110.7003648226729)"><path d="M-0.62 -1.2 C-1.07 35.83, -1.62 183.86, -1.86 221.1 M1.26 0.79 C1.12 38.11, 0.63 185.98, 0.49 222.6" stroke="#000000" stroke-width="2" fill="none"></path></g><g transform="translate(684.7498702262811 1701.601722098398) rotate(0 -0.3015655273696325 110.7003648226729)"><path d="M-0.83 223.56 L-7.47 207.93 L4.99 208.77 L-0.02 222.8" stroke="none" stroke-width="0" fill="#000000" fill-rule="evenodd"></path><path d="M-1.01 221.74 C-1.81 216.43, -2.7 211.12, -6.75 208.81 M0.06 222.02 C-1.6 219.8, -2.53 216.23, -5.91 209.51 M-6.76 209.65 C-1.95 208.75, 0.83 209.16, 6.29 208.69 M-5.4 208.62 C-1.9 208.96, 1.45 208.69, 7.4 208.91 M8.35 209.97 C6.29 212.32, 3.91 218.33, 0.24 221.17 M6.38 209.67 C4.58 212.96, 3.72 217.84, 0.37 222.17 M0.49 222.6 C0.49 222.6, 0.49 222.6, 0.49 222.6 M0.49 222.6 C0.49 222.6, 0.49 222.6, 0.49 222.6" stroke="#000000" stroke-width="2" fill="none"></path></g></g><mask></mask><g transform="translate(479.08331647115193 523.0502199922474) rotate(359.82070626930874 115.99999999999997 12.5)"><text x="0" y="18" font-family="Virgil, Segoe UI Emoji" font-size="20px" fill="#000000" text-anchor="start" style="white-space: pre;" direction="ltr">After 100s (1 TKN / s)</text></g><g transform="translate(447.84176183226225 1126.1971628477477) rotate(0 116 12.5)"><text x="0" y="18" font-family="Virgil, Segoe UI Emoji" font-size="20px" fill="#000000" text-anchor="start" style="white-space: pre;" direction="ltr">After 100s (1 TKN / s)</text></g><g transform="translate(432.52457671904773 1794.9850798170733) rotate(0 115.99999999999997 12.5)"><text x="0" y="18" font-family="Virgil, Segoe UI Emoji" font-size="20px" fill="#000000" text-anchor="start" style="white-space: pre;" direction="ltr">After 100s (1 TKN / s)</text></g><g transform="translate(223.96798019875564 772.7765601063529) rotate(0 73 50)"><text x="0" y="18" font-family="Virgil, Segoe UI Emoji" font-size="20px" fill="#1864ab" text-anchor="start" style="white-space: pre;" direction="ltr">User 1</text><text x="0" y="43" font-family="Virgil, Segoe UI Emoji" font-size="20px" fill="#1864ab" text-anchor="start" style="white-space: pre;" direction="ltr">223606 share</text><text x="0" y="68" font-family="Virgil, Segoe UI Emoji" font-size="20px" fill="#1864ab" text-anchor="start" style="white-space: pre;" direction="ltr">≅ 566 TKN</text><text x="0" y="93" font-family="Virgil, Segoe UI Emoji" font-size="20px" fill="#1864ab" text-anchor="start" style="white-space: pre;" direction="ltr">66 earnings</text></g><g transform="translate(110.70382766110163 1384.6286279096198) rotate(0 73 62.5)"><text x="0" y="18" font-family="Virgil, Segoe UI Emoji" font-size="20px" fill="#1864ab" text-anchor="start" style="white-space: pre;" direction="ltr">User 1</text><text x="0" y="43" font-family="Virgil, Segoe UI Emoji" font-size="20px" fill="#1864ab" text-anchor="start" style="white-space: pre;" direction="ltr">223606 share</text><text x="0" y="68" font-family="Virgil, Segoe UI Emoji" font-size="20px" fill="#1864ab" text-anchor="start" style="white-space: pre;" direction="ltr">≅ 597 TKN</text><text x="0" y="93" font-family="Virgil, Segoe UI Emoji" font-size="20px" fill="#1864ab" text-anchor="start" style="white-space: pre;" direction="ltr">31 earnings</text><text x="0" y="118" font-family="Virgil, Segoe UI Emoji" font-size="20px" fill="#1864ab" text-anchor="start" style="white-space: pre;" direction="ltr"></text></g><g transform="translate(363.19149818182996 2120.5057868991616) rotate(0 51.5 50)"><text x="0" y="18" font-family="Virgil, Segoe UI Emoji" font-size="20px" fill="#1864ab" text-anchor="start" style="white-space: pre;" direction="ltr">User 1</text><text x="0" y="43" font-family="Virgil, Segoe UI Emoji" font-size="20px" fill="#1864ab" text-anchor="start" style="white-space: pre;" direction="ltr">0 share</text><text x="0" y="68" font-family="Virgil, Segoe UI Emoji" font-size="20px" fill="#1864ab" text-anchor="start" style="white-space: pre;" direction="ltr">0 TKN</text><text x="0" y="93" font-family="Virgil, Segoe UI Emoji" font-size="20px" fill="#1864ab" text-anchor="start" style="white-space: pre;" direction="ltr">0 earnings</text></g><g transform="translate(398.2363568932167 775.8699233729634) rotate(0 62 50)"><text x="0" y="18" font-family="Virgil, Segoe UI Emoji" font-size="20px" fill="#1864ab" text-anchor="start" style="white-space: pre;" direction="ltr">User 2</text><text x="0" y="43" font-family="Virgil, Segoe UI Emoji" font-size="20px" fill="#1864ab" text-anchor="start" style="white-space: pre;" direction="ltr">111803 share</text><text x="0" y="68" font-family="Virgil, Segoe UI Emoji" font-size="20px" fill="#1864ab" text-anchor="start" style="white-space: pre;" direction="ltr">≅ 283 TKN</text><text x="0" y="93" font-family="Virgil, Segoe UI Emoji" font-size="20px" fill="#1864ab" text-anchor="start" style="white-space: pre;" direction="ltr">33 earnings</text></g><g transform="translate(283.3316062092118 1386.6820127149172) rotate(0 62 50)"><text x="62" y="18" font-family="Virgil, Segoe UI Emoji" font-size="20px" fill="#1864ab" text-anchor="middle" style="white-space: pre;" direction="ltr">User 2</text><text x="62" y="43" font-family="Virgil, Segoe UI Emoji" font-size="20px" fill="#1864ab" text-anchor="middle" style="white-space: pre;" direction="ltr">111803 share</text><text x="62" y="68" font-family="Virgil, Segoe UI Emoji" font-size="20px" fill="#1864ab" text-anchor="middle" style="white-space: pre;" direction="ltr">≅ 298 TKN</text><text x="62" y="93" font-family="Virgil, Segoe UI Emoji" font-size="20px" fill="#1864ab" text-anchor="middle" style="white-space: pre;" direction="ltr">15 earnings</text></g><g transform="translate(488.70452736305106 2116.149041877319) rotate(0 62 50)"><text x="0" y="18" font-family="Virgil, Segoe UI Emoji" font-size="20px" fill="#1864ab" text-anchor="start" style="white-space: pre;" direction="ltr">User 2</text><text x="0" y="43" font-family="Virgil, Segoe UI Emoji" font-size="20px" fill="#1864ab" text-anchor="start" style="white-space: pre;" direction="ltr">111803 share</text><text x="0" y="68" font-family="Virgil, Segoe UI Emoji" font-size="20px" fill="#1864ab" text-anchor="start" style="white-space: pre;" direction="ltr">≅ 320 TKN</text><text x="0" y="93" font-family="Virgil, Segoe UI Emoji" font-size="20px" fill="#1864ab" text-anchor="start" style="white-space: pre;" direction="ltr">22 earnings</text></g><g transform="translate(444.86732667547324 1390.5952947778815) rotate(0 71.5 50)"><text x="0" y="18" font-family="Virgil, Segoe UI Emoji" font-size="20px" fill="#1864ab" text-anchor="start" style="white-space: pre;" direction="ltr">User 3</text><text x="0" y="43" font-family="Virgil, Segoe UI Emoji" font-size="20px" fill="#1864ab" text-anchor="start" style="white-space: pre;" direction="ltr">394598 share</text><text x="0" y="68" font-family="Virgil, Segoe UI Emoji" font-size="20px" fill="#1864ab" text-anchor="start" style="white-space: pre;" direction="ltr">≅ 1054 TKN</text><text x="0" y="93" font-family="Virgil, Segoe UI Emoji" font-size="20px" fill="#1864ab" text-anchor="start" style="white-space: pre;" direction="ltr">54 earnings</text></g><g transform="translate(630.6578147410216 2117.9314989183094) rotate(0 71.5 50)"><text x="0" y="18" font-family="Virgil, Segoe UI Emoji" font-size="20px" fill="#1864ab" text-anchor="start" style="white-space: pre;" direction="ltr">User 3</text><text x="0" y="43" font-family="Virgil, Segoe UI Emoji" font-size="20px" fill="#1864ab" text-anchor="start" style="white-space: pre;" direction="ltr">394598 share</text><text x="0" y="68" font-family="Virgil, Segoe UI Emoji" font-size="20px" fill="#1864ab" text-anchor="start" style="white-space: pre;" direction="ltr">≅ 1132 TKN</text><text x="0" y="93" font-family="Virgil, Segoe UI Emoji" font-size="20px" fill="#1864ab" text-anchor="start" style="white-space: pre;" direction="ltr">78 earnings</text></g><g stroke-linecap="round"><g transform="translate(325.71423737131477 56.09565819029842) rotate(0 294.71029466322193 0.28099679439497294)"><path d="M-1.01 -0.38 C96.94 -0.32, 490.05 0.58, 588.35 1.06 M0.65 -1.63 C98.9 -1.48, 492 1.84, 590.44 2.19" stroke="#000000" stroke-width="2" fill="none"></path></g></g><mask></mask><g transform="translate(583.1928894500287 10) rotate(0 35 12.5)"><text x="0" y="18" font-family="Virgil, Segoe UI Emoji" font-size="20px" fill="#000000" text-anchor="start" style="white-space: pre;" direction="ltr">Time 0</text></g><g transform="translate(534.4254381819771 632.1192740892875) rotate(0 44.5 12.5)"><text x="0" y="18" font-family="Virgil, Segoe UI Emoji" font-size="20px" fill="#000000" text-anchor="start" style="white-space: pre;" direction="ltr">Time 100</text></g><g transform="translate(553.4508759921652 1254.154053498452) rotate(0 49 12.5)"><text x="0" y="18" font-family="Virgil, Segoe UI Emoji" font-size="20px" fill="#000000" text-anchor="start" style="white-space: pre;" direction="ltr">Time 200</text></g><g transform="translate(502.557054675347 1978.254536143409) rotate(0 48.5 12.5)"><text x="0" y="18" font-family="Virgil, Segoe UI Emoji" font-size="20px" fill="#000000" text-anchor="start" style="white-space: pre;" direction="ltr">Time 300</text></g><g stroke-linecap="round"><g transform="translate(246.75063165175243 679.544188631328) rotate(0 353.17136116990616 -1.8175125801534477)"><path d="M0.89 -0.13 C118.56 -0.38, 588.97 -1.31, 706.44 -1.55 M-0.1 -1.24 C117.36 -1.87, 587.32 -3.69, 705.36 -3.49" stroke="#000000" stroke-width="2" fill="none"></path></g></g><mask></mask><g stroke-linecap="round"><g transform="translate(131.17147076024332 1301.0208687596376) rotate(0 474.65926005922904 -2.1322096217039643)"><path d="M-0.13 -1.09 C158.55 -1.61, 792.38 -3.2, 950.98 -3.61 M-1.66 0.96 C156.96 0.16, 791.23 -4.17, 950 -5.22" stroke="#000000" stroke-width="2" fill="none"></path></g></g><mask></mask><g stroke-linecap="round"><g transform="translate(347.43625037390575 2019.4307150408138) rotate(0 212.46626410747538 0.08281652061123168)"><path d="M0.35 0 C71.24 0.11, 354.86 -0.01, 425.86 0.14 M-0.93 -1.04 C69.79 -0.77, 353.94 0.67, 425.1 1.21" stroke="#000000" stroke-width="2" fill="none"></path></g></g><mask></mask><g transform="translate(574.7178809007103 810.4196338769412) rotate(0 36 12.5)"><text x="0" y="18" font-family="Virgil, Segoe UI Emoji" font-size="20px" fill="#000000" text-anchor="start" style="white-space: pre;" direction="ltr">deposit</text></g><g transform="translate(689.912938629479 1440.076469840635) rotate(0 42.5 12.5)"><text x="0" y="18" font-family="Virgil, Segoe UI Emoji" font-size="20px" fill="#000000" text-anchor="start" style="white-space: pre;" direction="ltr">withdraw</text></g><g transform="translate(652.2180901460541 178.59655929373125) rotate(0 36 12.5)"><text x="0" y="18" font-family="Virgil, Segoe UI Emoji" font-size="20px" fill="#000000" text-anchor="start" style="white-space: pre;" direction="ltr">deposit</text></g><g transform="translate(295.19421181968903 175.17394453383744) rotate(0 36 12.5)"><text x="0" y="18" font-family="Virgil, Segoe UI Emoji" font-size="20px" fill="#000000" text-anchor="start" style="white-space: pre;" direction="ltr">deposit</text></g><g transform="translate(949.286453478288 1429.666245993997) rotate(0 20.5 12.5)"><text x="0" y="18" font-family="Virgil, Segoe UI Emoji" font-size="20px" fill="#000000" text-anchor="start" style="white-space: pre;" direction="ltr">burn</text></g></svg>